<svg xmlns="http://www.w3.org/2000/svg" viewBox="0 0 185.2 185.1"><defs><style>.cls-1{fill:#fff;}</style></defs><title>Fichier 1</title><g id="Calque_2" data-name="Calque 2"><g id="Calque_1-2" data-name="Calque 1"><path class="cls-1" d="M158.2,0H27A27,27,0,0,0,0,27V158.1a27,27,0,0,0,27,27H158.2a27,27,0,0,0,27-27V27.1A27.1,27.1,0,0,0,158.2,0Zm15.3,158.2a15.41,15.41,0,0,1-15.4,15.4H122V114h22.6l4.3-28H122V67.8c0-7.7,3.8-15.1,15.8-15.1H150V28.9A148.68,148.68,0,0,0,128.3,27c-22.1,0-36.6,13.4-36.6,37.7V86H67.1v28H91.7v59.6H26.9a15.41,15.41,0,0,1-15.4-15.4V27.1A15.41,15.41,0,0,1,26.9,11.7H158a15.41,15.41,0,0,1,15.4,15.4V158.2Z"/></g></g></svg>