<svg xmlns="http://www.w3.org/2000/svg" viewBox="0 0 185.1 185.1"><defs><style>.cls-1,.cls-2{fill:#fff;}.cls-2{fill-rule:evenodd;}</style></defs><title>Fichier 2</title><g id="Calque_2" data-name="Calque 2"><g id="Calque_1-2" data-name="Calque 1"><path class="cls-1" d="M158.2,185.1H27a27,27,0,0,1-27-27V27A27,27,0,0,1,27,0H158.1a27,27,0,0,1,27,27V158.1A26.87,26.87,0,0,1,158.2,185.1ZM27,11.6A15.41,15.41,0,0,0,11.6,27V158.1A15.41,15.41,0,0,0,27,173.5H158.1a15.41,15.41,0,0,0,15.4-15.4V27a15.41,15.41,0,0,0-15.4-15.4Z"/><path class="cls-2" d="M151.6,68.1a43.1,43.1,0,0,0-2.8-14.4,29.91,29.91,0,0,0-17.3-17.3,43.1,43.1,0,0,0-14.4-2.8c-6.3-.3-8.3-.4-24.5-.4s-18.1.1-24.5.4a43.1,43.1,0,0,0-14.4,2.8A29.91,29.91,0,0,0,36.4,53.7a43.1,43.1,0,0,0-2.8,14.4c-.3,6.3-.4,8.3-.4,24.5s.1,18.1.4,24.5a43.1,43.1,0,0,0,2.8,14.4,29.91,29.91,0,0,0,17.3,17.3,43.1,43.1,0,0,0,14.4,2.8c6.3.3,8.3.4,24.5.4s18.1-.1,24.5-.4a43.1,43.1,0,0,0,14.4-2.8,29.91,29.91,0,0,0,17.3-17.3,43.1,43.1,0,0,0,2.8-14.4c.3-6.3.4-8.3.4-24.5S151.8,74.4,151.6,68.1Zm-10.7,48.4a34.31,34.31,0,0,1-2,11,19.46,19.46,0,0,1-4.4,6.8,17.73,17.73,0,0,1-6.8,4.4,31.67,31.67,0,0,1-11,2c-6.3.3-8.1.3-24,.3s-17.7-.1-24-.3a34.31,34.31,0,0,1-11-2,19.46,19.46,0,0,1-6.8-4.4,17,17,0,0,1-4.4-6.8,31.67,31.67,0,0,1-2-11c-.3-6.3-.3-8.1-.3-24s.1-17.7.3-24a34.31,34.31,0,0,1,2-11,19.46,19.46,0,0,1,4.4-6.8,17,17,0,0,1,6.8-4.4,31.67,31.67,0,0,1,11-2c6.3-.3,8.1-.3,24-.3s17.7.1,24,.3a34.31,34.31,0,0,1,11,2,19.46,19.46,0,0,1,6.8,4.4,17.73,17.73,0,0,1,4.4,6.8,31.67,31.67,0,0,1,2,11c.3,6.3.3,8.1.3,24S141.2,110.3,140.9,116.5Z"/><path class="cls-2" d="M131.4,60.9a7.1,7.1,0,1,1-7.1-7.1A7.13,7.13,0,0,1,131.4,60.9Z"/><path class="cls-2" d="M92.6,62.1a30.5,30.5,0,1,0,30.5,30.5A30.49,30.49,0,0,0,92.6,62.1Zm0,50.2a19.8,19.8,0,1,1,19.8-19.8A19.85,19.85,0,0,1,92.6,112.3Z"/></g></g></svg>