<svg xmlns="http://www.w3.org/2000/svg" viewBox="0 0 185.1 185.1"><defs><style>.cls-1,.cls-2{fill:#fff;}.cls-1{fill-rule:evenodd;}</style></defs><title>Fichier 3</title><g id="Calque_2" data-name="Calque 2"><g id="Calque_1-2" data-name="Calque 1"><path class="cls-1" d="M143.3,75.2v3.2c0,33.1-25.2,71.3-71.3,71.3a70.57,70.57,0,0,1-38.3-11.3,39.45,39.45,0,0,0,6,.4,50.46,50.46,0,0,0,31.1-10.7,25,25,0,0,1-23.4-17.4,25,25,0,0,0,4.7.5,23.91,23.91,0,0,0,6.6-.9A25,25,0,0,1,38.6,85.7v-.3a24.18,24.18,0,0,0,11.3,3.1A24.94,24.94,0,0,1,38.7,67.7a24.51,24.51,0,0,1,3.4-12.6A71.23,71.23,0,0,0,93.7,81.3a21.21,21.21,0,0,1-.7-5.7,25,25,0,0,1,43.3-17.1,48.64,48.64,0,0,0,15.9-6.1,25,25,0,0,1-11,13.9,52.81,52.81,0,0,0,14.4-3.9A49.72,49.72,0,0,1,143.3,75.2Z"/><path class="cls-2" d="M158.2,185.1H27a27,27,0,0,1-27-27V27A27,27,0,0,1,27,0H158.1a27,27,0,0,1,27,27V158.1A26.87,26.87,0,0,1,158.2,185.1ZM27,11.6A15.41,15.41,0,0,0,11.6,27V158.1A15.41,15.41,0,0,0,27,173.5H158.1a15.41,15.41,0,0,0,15.4-15.4V27a15.41,15.41,0,0,0-15.4-15.4Z"/></g></g></svg>